<?xml version="1.0" encoding="utf-8"?>
<!-- Generator: Adobe Illustrator 24.1.2, SVG Export Plug-In . SVG Version: 6.00 Build 0)  -->
<svg version="1.1" id="Layer_1" xmlns="http://www.w3.org/2000/svg" xmlns:xlink="http://www.w3.org/1999/xlink" x="0px" y="0px"
	 viewBox="0 0 2500 2438" style="enable-background:new 0 0 2500 2438;" xml:space="preserve">
<style type="text/css">
	.st0{fill:url(#SVGID_1_);}
	.st1{fill:#FF7F18;}
</style>
<radialGradient id="SVGID_1_" cx="759.8981" cy="1286.4579" r="0.76" gradientTransform="matrix(2291.6716 0 0 -2218.7549 -1740577.875 2854938.5)" gradientUnits="userSpaceOnUse">
	<stop  offset="0" style="stop-color:#423325;stop-opacity:0.98"/>
	<stop  offset="1" style="stop-color:#1C0A00"/>
</radialGradient>
<path class="st0" d="M278.4,104.4h1943.3c96.2,0,174.2,78,174.2,174.2v1880.8c0,96.2-78,174.2-174.2,174.2H278.4
	c-96.2,0-174.2-78-174.2-174.2V278.6C104.2,182.4,182.2,104.4,278.4,104.4z"/>
<path id="adsad" class="st1" d="M186.9-0.5h2126.1c105.3,0,190.6,85.3,190.6,190.6v2057.7c0,105.3-85.3,190.6-190.6,190.6H186.9
	c-105.3,0-190.6-85.3-190.6-190.6V190.1C-3.7,84.9,81.7-0.5,186.9-0.5z"/>
<path d="M107.4,104.4h2285.2c1.8,0,3.2,1.4,3.2,3.2v2222.7c0,1.8-1.4,3.2-3.2,3.2H107.4c-1.8,0-3.2-1.4-3.2-3.2V107.6
	C104.2,105.9,105.6,104.4,107.4,104.4z"/>
<path class="st1" d="M794.1,1393.7l-82.3,312.5c-2.1,8.3-5.2,10.4-15.6,10.4H543.1c-10.4,0-12.5-3.1-10.4-15.4c0-0.1,0-0.3,0.1-0.4
	L828.5,665.6c5.2-18.7,8.3-35.4,10.4-86.5c0-7.3,3.1-10.4,8.3-10.4H1066c7.3,0,10.4,2.1,12.5,10.4l331.2,1124
	c2.1,8.3,0,13.5-8.3,13.5h-172.9c-8.3,0-13.5-2.1-15.6-9.4l-84.8-311.2c-0.4-1.4-1.7-2.4-3.1-2.4H794.1L794.1,1393.7z"/>
<path d="M1082.7,1221c-29.6-117-96.8-363.7-122.7-484.6c-0.1-0.6-0.6-1-1.2-1l0,0c-0.6,0-1.1,0.4-1.2,1
	c-21.8,121-76.1,324.1-119.5,484.5c-0.6,2.1,1,4.1,3.1,4.1h238.5C1081.7,1225,1083.2,1223,1082.7,1221z"/>
<path class="st1" d="M1563.9,882.3c0-8.3,3.1-12.5,12.5-12.5h163.5c8.3,0,12.5,3.1,12.5,12.5v821.9c0,8.3-2.1,12.5-12.5,12.5h-161.5
	c-10.4,0-13.5-5.2-13.5-13.5V882.3L1563.9,882.3L1563.9,882.3z"/>
<path class="st1" d="M1552.4,645.8c0-52.5,29.1-88.3,70.5-101c108.6-33.5,169.7,29.9,136.7,138.7c-13.6,44.7-52.3,68.6-103.1,68.6
	C1596.2,752.1,1552.4,714.6,1552.4,645.8z"/>
</svg>
